<svg width="484" height="180" viewBox="0 0 484 180" fill="none" xmlns="http://www.w3.org/2000/svg">
<g clip-path="url(#clip0_58_2)">
<g filter="url(#filter0_d_58_2)">
<rect x="32" y="28" width="124" height="124" rx="16" fill="white"/>
<path d="M73 86C73 82.6863 75.6863 80 79 80C82.3137 80 85 82.6863 85 86V130C85 133.314 82.3137 136 79 136C75.6863 136 73 133.314 73 130V86Z" fill="#FFCC00"/>
<path d="M103 68C103 64.6863 105.686 62 109 62C112.314 62 115 64.6863 115 68V130C115 133.314 112.314 136 109 136C105.686 136 103 133.314 103 130V68Z" fill="#32ADE6"/>
<path d="M88 50C88 46.6863 90.6863 44 94 44C97.3137 44 100 46.6863 100 50V130C100 133.314 97.3137 136 94 136C90.6863 136 88 133.314 88 130V50Z" fill="#00D563"/>
</g>
<g filter="url(#filter1_d_58_2)">
<rect x="180" y="28" width="124" height="124" rx="16" fill="white"/>
<path d="M290 90C290 97.8287 288.085 105.539 284.422 112.458C280.76 119.376 275.46 125.295 268.986 129.696C262.512 134.097 255.059 136.848 247.278 137.709C239.497 138.57 231.623 137.514 224.343 134.634C217.063 131.755 210.599 127.138 205.512 121.187C200.425 115.236 196.872 108.131 195.161 100.492C193.449 92.8522 193.633 84.9103 195.695 77.358C197.757 69.8057 201.634 62.8724 206.99 57.1624L242 90H290Z" fill="#00C7BE"/>
<path d="M290 90C290 99.1163 287.404 108.044 282.516 115.739C277.627 123.434 270.649 129.577 262.396 133.451C254.144 137.325 244.959 138.768 235.916 137.613C226.874 136.457 218.347 132.751 211.334 126.927L242 90H290Z" fill="#30B0C7"/>
<path d="M290 90C290 96.3035 288.758 102.545 286.346 108.369C283.934 114.192 280.398 119.484 275.941 123.941L242 90H290Z" fill="#32ADE6"/>
<path d="M290 90C290 80.3769 287.108 70.9759 281.698 63.0172C276.288 55.0585 268.612 48.9095 259.664 45.3682C250.716 41.827 240.91 41.057 231.519 43.1582C222.128 45.2594 213.586 50.1348 207 57.1517L242 90H290Z" fill="#00D563"/>
<path d="M267.525 98.8741V104.692H266.471V99.8996H266.437L265.076 100.769V99.8031L266.522 98.8741H267.525ZM271.895 104.803C271.427 104.803 271.026 104.685 270.691 104.448C270.357 104.209 270.101 103.866 269.921 103.417C269.743 102.966 269.654 102.423 269.654 101.789C269.656 101.154 269.746 100.615 269.924 100.17C270.104 99.7226 270.36 99.3817 270.693 99.1468C271.029 98.912 271.429 98.7945 271.895 98.7945C272.361 98.7945 272.762 98.912 273.097 99.1468C273.432 99.3817 273.689 99.7226 273.867 100.17C274.047 100.617 274.137 101.156 274.137 101.789C274.137 102.425 274.047 102.969 273.867 103.42C273.689 103.868 273.432 104.211 273.097 104.448C272.764 104.685 272.363 104.803 271.895 104.803ZM271.895 103.914C272.259 103.914 272.546 103.735 272.756 103.377C272.968 103.017 273.074 102.488 273.074 101.789C273.074 101.327 273.026 100.938 272.929 100.624C272.833 100.31 272.696 100.073 272.52 99.9139C272.344 99.7529 272.136 99.6724 271.895 99.6724C271.533 99.6724 271.247 99.8523 271.037 100.212C270.827 100.57 270.721 101.096 270.719 101.789C270.717 102.253 270.764 102.643 270.858 102.959C270.955 103.276 271.091 103.514 271.267 103.675C271.443 103.834 271.653 103.914 271.895 103.914ZM278.208 103.601V103.295C278.208 103.069 278.256 102.862 278.35 102.672C278.447 102.483 278.587 102.331 278.771 102.215C278.955 102.099 279.177 102.042 279.439 102.042C279.707 102.042 279.933 102.099 280.115 102.215C280.296 102.329 280.434 102.48 280.527 102.67C280.621 102.859 280.669 103.067 280.669 103.295V103.601C280.669 103.827 280.621 104.034 280.527 104.224C280.432 104.413 280.293 104.565 280.109 104.681C279.927 104.796 279.704 104.854 279.439 104.854C279.173 104.854 278.949 104.796 278.765 104.681C278.582 104.565 278.442 104.413 278.348 104.224C278.255 104.034 278.208 103.827 278.208 103.601ZM278.95 103.295V103.601C278.95 103.751 278.986 103.888 279.058 104.013C279.13 104.138 279.257 104.201 279.439 104.201C279.622 104.201 279.748 104.139 279.816 104.016C279.886 103.891 279.921 103.753 279.921 103.601V103.295C279.921 103.143 279.888 103.005 279.822 102.88C279.756 102.753 279.628 102.689 279.439 102.689C279.26 102.689 279.135 102.753 279.061 102.88C278.987 103.005 278.95 103.143 278.95 103.295ZM275.251 100.272V99.965C275.251 99.7377 275.299 99.5294 275.396 99.34C275.492 99.1506 275.633 98.9991 275.816 98.8854C276 98.7699 276.223 98.7121 276.484 98.7121C276.751 98.7121 276.975 98.7699 277.157 98.8854C277.341 98.9991 277.479 99.1506 277.572 99.34C277.665 99.5294 277.711 99.7377 277.711 99.965V100.272C277.711 100.499 277.664 100.707 277.569 100.897C277.476 101.084 277.338 101.235 277.154 101.349C276.971 101.462 276.747 101.519 276.484 101.519C276.217 101.519 275.992 101.462 275.808 101.349C275.626 101.235 275.488 101.083 275.393 100.894C275.298 100.705 275.251 100.497 275.251 100.272ZM275.998 99.965V100.272C275.998 100.423 276.033 100.562 276.103 100.687C276.175 100.81 276.302 100.871 276.484 100.871C276.666 100.871 276.791 100.81 276.859 100.687C276.929 100.562 276.964 100.423 276.964 100.272V99.965C276.964 99.8135 276.931 99.6752 276.865 99.5502C276.798 99.4233 276.671 99.3599 276.484 99.3599C276.304 99.3599 276.178 99.4233 276.106 99.5502C276.034 99.6771 275.998 99.8154 275.998 99.965ZM275.575 104.692L279.575 98.8741H280.285L276.285 104.692H275.575Z" fill="#001409"/>
<path d="M239.218 118.259V124.077H238.164V119.284H238.129L236.769 120.154V119.188L238.215 118.259H239.218ZM243.644 124.156C243.366 124.155 243.094 124.106 242.829 124.012C242.564 123.915 242.325 123.759 242.113 123.543C241.901 123.325 241.732 123.036 241.607 122.676C241.482 122.315 241.421 121.867 241.423 121.333C241.423 120.834 241.476 120.39 241.582 120C241.688 119.61 241.84 119.281 242.039 119.012C242.238 118.741 242.478 118.534 242.758 118.392C243.04 118.25 243.356 118.179 243.704 118.179C244.07 118.179 244.393 118.251 244.676 118.395C244.96 118.539 245.189 118.736 245.363 118.986C245.537 119.234 245.645 119.514 245.687 119.827H244.65C244.597 119.603 244.488 119.425 244.323 119.293C244.16 119.158 243.954 119.091 243.704 119.091C243.301 119.091 242.99 119.266 242.772 119.617C242.556 119.967 242.447 120.448 242.446 121.06H242.485C242.578 120.893 242.698 120.75 242.846 120.631C242.994 120.512 243.16 120.42 243.346 120.355C243.534 120.289 243.732 120.256 243.94 120.256C244.281 120.256 244.587 120.337 244.857 120.5C245.13 120.663 245.346 120.888 245.505 121.173C245.664 121.458 245.743 121.783 245.741 122.151C245.743 122.533 245.656 122.877 245.48 123.182C245.303 123.485 245.058 123.724 244.744 123.898C244.429 124.072 244.063 124.158 243.644 124.156ZM243.639 123.304C243.845 123.304 244.03 123.254 244.193 123.154C244.356 123.053 244.484 122.918 244.579 122.747C244.674 122.577 244.72 122.386 244.718 122.173C244.72 121.965 244.675 121.777 244.582 121.608C244.491 121.44 244.365 121.306 244.204 121.208C244.043 121.109 243.859 121.06 243.653 121.06C243.5 121.06 243.357 121.089 243.224 121.148C243.091 121.207 242.976 121.288 242.877 121.392C242.779 121.495 242.701 121.614 242.644 121.75C242.589 121.885 242.561 122.029 242.559 122.182C242.561 122.385 242.608 122.571 242.701 122.742C242.794 122.912 242.922 123.048 243.085 123.151C243.248 123.253 243.432 123.304 243.639 123.304ZM249.901 122.986V122.679C249.901 122.454 249.948 122.246 250.043 122.057C250.139 121.868 250.28 121.715 250.463 121.6C250.647 121.484 250.87 121.426 251.131 121.426C251.4 121.426 251.625 121.484 251.807 121.6C251.989 121.713 252.126 121.865 252.219 122.054C252.314 122.244 252.361 122.452 252.361 122.679V122.986C252.361 123.211 252.314 123.419 252.219 123.608C252.124 123.798 251.985 123.95 251.801 124.066C251.62 124.181 251.396 124.239 251.131 124.239C250.866 124.239 250.641 124.181 250.458 124.066C250.274 123.95 250.135 123.798 250.04 123.608C249.947 123.419 249.901 123.211 249.901 122.986ZM250.642 122.679V122.986C250.642 123.136 250.678 123.273 250.75 123.398C250.822 123.523 250.949 123.585 251.131 123.585C251.315 123.585 251.441 123.524 251.509 123.401C251.579 123.276 251.614 123.138 251.614 122.986V122.679C251.614 122.528 251.581 122.389 251.514 122.264C251.448 122.138 251.32 122.074 251.131 122.074C250.953 122.074 250.827 122.138 250.753 122.264C250.679 122.389 250.642 122.528 250.642 122.679ZM246.943 119.656V119.35C246.943 119.122 246.992 118.914 247.088 118.725C247.185 118.535 247.325 118.384 247.509 118.27C247.692 118.155 247.915 118.097 248.176 118.097C248.443 118.097 248.668 118.155 248.85 118.27C249.033 118.384 249.172 118.535 249.264 118.725C249.357 118.914 249.404 119.122 249.404 119.35V119.656C249.404 119.884 249.356 120.092 249.262 120.281C249.169 120.469 249.031 120.62 248.847 120.733C248.663 120.847 248.44 120.904 248.176 120.904C247.909 120.904 247.684 120.847 247.5 120.733C247.318 120.62 247.18 120.468 247.085 120.279C246.991 120.089 246.943 119.882 246.943 119.656ZM247.691 119.35V119.656C247.691 119.808 247.726 119.946 247.796 120.071C247.868 120.194 247.995 120.256 248.176 120.256C248.358 120.256 248.483 120.194 248.551 120.071C248.621 119.946 248.656 119.808 248.656 119.656V119.35C248.656 119.198 248.623 119.06 248.557 118.935C248.491 118.808 248.364 118.745 248.176 118.745C247.996 118.745 247.87 118.808 247.799 118.935C247.727 119.062 247.691 119.2 247.691 119.35ZM247.267 124.077L251.267 118.259H251.977L247.977 124.077H247.267Z" fill="#001409"/>
<path d="M206.405 93.6154V92.854L208.425 90.8739C208.619 90.6788 208.78 90.5055 208.908 90.354C209.037 90.2025 209.134 90.0557 209.198 89.9137C209.262 89.7716 209.295 89.6201 209.295 89.4591C209.295 89.2754 209.253 89.1182 209.17 88.9875C209.086 88.8549 208.972 88.7527 208.826 88.6807C208.68 88.6087 208.514 88.5727 208.329 88.5727C208.137 88.5727 207.97 88.6125 207.826 88.6921C207.682 88.7697 207.57 88.8805 207.491 89.0244C207.413 89.1684 207.374 89.3398 207.374 89.5387H206.371C206.371 89.1693 206.456 88.8483 206.624 88.5756C206.793 88.3029 207.025 88.0917 207.32 87.9421C207.618 87.7924 207.958 87.7176 208.343 87.7176C208.733 87.7176 209.076 87.7905 209.371 87.9364C209.667 88.0822 209.896 88.282 210.059 88.5358C210.224 88.7896 210.306 89.0794 210.306 89.4051C210.306 89.6229 210.264 89.8369 210.181 90.0472C210.098 90.2574 209.951 90.4904 209.741 90.746C209.532 91.0017 209.24 91.3114 208.863 91.675L207.86 92.6949V92.7347H210.394V93.6154H206.405ZM213.679 87.7176C213.957 87.7195 214.228 87.7688 214.491 87.8654C214.757 87.9601 214.995 88.1154 215.207 88.3313C215.419 88.5453 215.588 88.8322 215.713 89.1921C215.838 89.5519 215.9 89.997 215.9 90.5273C215.902 91.0273 215.849 91.4743 215.741 91.8682C215.635 92.2602 215.483 92.5917 215.284 92.8625C215.085 93.1333 214.846 93.3398 214.565 93.4818C214.285 93.6239 213.97 93.6949 213.619 93.6949C213.252 93.6949 212.926 93.6229 212.642 93.479C212.36 93.3351 212.132 93.1381 211.957 92.8881C211.783 92.6381 211.676 92.3521 211.636 92.0301H212.673C212.726 92.2612 212.834 92.4449 212.997 92.5813C213.162 92.7157 213.369 92.783 213.619 92.783C214.023 92.783 214.333 92.6078 214.551 92.2574C214.769 91.907 214.878 91.4203 214.878 90.7972H214.838C214.745 90.9638 214.625 91.1078 214.477 91.229C214.329 91.3483 214.162 91.4402 213.974 91.5046C213.789 91.569 213.592 91.6012 213.383 91.6012C213.043 91.6012 212.736 91.5197 212.463 91.3568C212.192 91.194 211.977 90.9705 211.818 90.6864C211.661 90.4023 211.581 90.0775 211.579 89.7119C211.579 89.3332 211.667 88.9932 211.841 88.6921C212.017 88.389 212.262 88.1504 212.577 87.9762C212.891 87.8 213.258 87.7138 213.679 87.7176ZM213.682 88.5699C213.477 88.5699 213.293 88.6201 213.128 88.7205C212.965 88.819 212.836 88.9534 212.741 89.1239C212.649 89.2924 212.602 89.4809 212.602 89.6892C212.604 89.8957 212.65 90.0832 212.741 90.2517C212.834 90.4203 212.96 90.5538 213.119 90.6523C213.28 90.7508 213.464 90.8 213.67 90.8C213.824 90.8 213.967 90.7707 214.099 90.7119C214.232 90.6532 214.347 90.5718 214.446 90.4676C214.546 90.3616 214.624 90.2413 214.679 90.1068C214.736 89.9724 214.763 89.8303 214.761 89.6807C214.761 89.4818 214.714 89.2981 214.619 89.1296C214.526 88.961 214.399 88.8256 214.236 88.7233C214.075 88.621 213.89 88.5699 213.682 88.5699ZM220.055 92.5244V92.2176C220.055 91.9923 220.102 91.7849 220.197 91.5955C220.293 91.4061 220.433 91.2536 220.617 91.1381C220.801 91.0226 221.023 90.9648 221.285 90.9648C221.554 90.9648 221.779 91.0226 221.961 91.1381C222.143 91.2517 222.28 91.4032 222.373 91.5926C222.467 91.782 222.515 91.9904 222.515 92.2176V92.5244C222.515 92.7498 222.467 92.9572 222.373 93.1466C222.278 93.336 222.139 93.4885 221.955 93.604C221.773 93.7195 221.55 93.7773 221.285 93.7773C221.02 93.7773 220.795 93.7195 220.611 93.604C220.428 93.4885 220.289 93.336 220.194 93.1466C220.101 92.9572 220.055 92.7498 220.055 92.5244ZM220.796 92.2176V92.5244C220.796 92.6741 220.832 92.8114 220.904 92.9364C220.976 93.0614 221.103 93.1239 221.285 93.1239C221.468 93.1239 221.594 93.0623 221.663 92.9392C221.733 92.8142 221.768 92.676 221.768 92.5244V92.2176C221.768 92.0661 221.735 91.9279 221.668 91.8029C221.602 91.676 221.474 91.6125 221.285 91.6125C221.107 91.6125 220.981 91.676 220.907 91.8029C220.833 91.9279 220.796 92.0661 220.796 92.2176ZM217.097 89.1949V88.8881C217.097 88.6608 217.146 88.4525 217.242 88.2631C217.339 88.0737 217.479 87.9222 217.663 87.8085C217.846 87.693 218.069 87.6352 218.33 87.6352C218.597 87.6352 218.822 87.693 219.003 87.8085C219.187 87.9222 219.325 88.0737 219.418 88.2631C219.511 88.4525 219.557 88.6608 219.557 88.8881V89.1949C219.557 89.4222 219.51 89.6305 219.415 89.8199C219.323 90.0074 219.184 90.158 219.001 90.2716C218.817 90.3852 218.593 90.4421 218.33 90.4421C218.063 90.4421 217.838 90.3852 217.654 90.2716C217.472 90.158 217.334 90.0065 217.239 89.8171C217.145 89.6277 217.097 89.4203 217.097 89.1949ZM217.844 88.8881V89.1949C217.844 89.3464 217.879 89.4847 217.949 89.6097C218.021 89.7328 218.148 89.7943 218.33 89.7943C218.512 89.7943 218.637 89.7328 218.705 89.6097C218.775 89.4847 218.81 89.3464 218.81 89.1949V88.8881C218.81 88.7366 218.777 88.5983 218.711 88.4733C218.645 88.3464 218.518 88.283 218.33 88.283C218.15 88.283 218.024 88.3464 217.952 88.4733C217.88 88.6002 217.844 88.7385 217.844 88.8881ZM217.421 93.6154L221.421 87.7972H222.131L218.131 93.6154H217.421Z" fill="#001409"/>
<path d="M244.258 63.9205V63.0824L246.727 59.1818H247.426V60.375H247L245.338 63.0085V63.054H248.784V63.9205H244.258ZM247.034 65V63.6648L247.045 63.2898V59.1818H248.039V65H247.034ZM251.871 65.0795C251.492 65.0795 251.153 65.0085 250.854 64.8665C250.555 64.7225 250.317 64.5256 250.141 64.2756C249.967 64.0256 249.874 63.7396 249.863 63.4176H250.885C250.904 63.6562 251.007 63.8513 251.195 64.0028C251.382 64.1525 251.608 64.2273 251.871 64.2273C252.077 64.2273 252.261 64.1799 252.422 64.0852C252.583 63.9905 252.71 63.8589 252.803 63.6903C252.896 63.5218 252.941 63.3295 252.939 63.1136C252.941 62.8939 252.895 62.6989 252.8 62.5284C252.705 62.358 252.576 62.2244 252.411 62.1278C252.246 62.0294 252.057 61.9801 251.843 61.9801C251.668 61.9782 251.497 62.0104 251.328 62.0767C251.16 62.143 251.026 62.2301 250.928 62.3381L249.976 62.1818L250.28 59.1818H253.655V60.0625H251.152L250.985 61.6051H251.019C251.127 61.4782 251.279 61.3731 251.476 61.2898C251.673 61.2045 251.889 61.1619 252.124 61.1619C252.476 61.1619 252.791 61.2453 253.067 61.4119C253.344 61.5767 253.561 61.804 253.72 62.0938C253.88 62.3835 253.959 62.715 253.959 63.0881C253.959 63.4725 253.87 63.8153 253.692 64.1165C253.516 64.4157 253.271 64.6515 252.956 64.8239C252.644 64.9943 252.282 65.0795 251.871 65.0795ZM258.193 63.9091V63.6023C258.193 63.3769 258.24 63.1695 258.335 62.9801C258.431 62.7907 258.572 62.6383 258.755 62.5227C258.939 62.4072 259.162 62.3494 259.423 62.3494C259.692 62.3494 259.917 62.4072 260.099 62.5227C260.281 62.6364 260.418 62.7879 260.511 62.9773C260.606 63.1667 260.653 63.375 260.653 63.6023V63.9091C260.653 64.1345 260.606 64.3419 260.511 64.5312C260.416 64.7206 260.277 64.8731 260.093 64.9886C259.912 65.1042 259.688 65.1619 259.423 65.1619C259.158 65.1619 258.933 65.1042 258.75 64.9886C258.566 64.8731 258.427 64.7206 258.332 64.5312C258.239 64.3419 258.193 64.1345 258.193 63.9091ZM258.934 63.6023V63.9091C258.934 64.0587 258.97 64.196 259.042 64.321C259.114 64.446 259.241 64.5085 259.423 64.5085C259.607 64.5085 259.733 64.447 259.801 64.3239C259.871 64.1989 259.906 64.0606 259.906 63.9091V63.6023C259.906 63.4508 259.873 63.3125 259.806 63.1875C259.74 63.0606 259.612 62.9972 259.423 62.9972C259.245 62.9972 259.119 63.0606 259.045 63.1875C258.971 63.3125 258.934 63.4508 258.934 63.6023ZM255.235 60.5795V60.2727C255.235 60.0455 255.284 59.8371 255.38 59.6477C255.477 59.4583 255.617 59.3068 255.801 59.1932C255.984 59.0777 256.207 59.0199 256.468 59.0199C256.735 59.0199 256.96 59.0777 257.142 59.1932C257.325 59.3068 257.464 59.4583 257.556 59.6477C257.649 59.8371 257.696 60.0455 257.696 60.2727V60.5795C257.696 60.8068 257.648 61.0152 257.554 61.2045C257.461 61.392 257.323 61.5426 257.139 61.6562C256.955 61.7699 256.732 61.8267 256.468 61.8267C256.201 61.8267 255.976 61.7699 255.792 61.6562C255.61 61.5426 255.472 61.3911 255.377 61.2017C255.283 61.0123 255.235 60.8049 255.235 60.5795ZM255.983 60.2727V60.5795C255.983 60.7311 256.018 60.8693 256.088 60.9943C256.16 61.1174 256.287 61.179 256.468 61.179C256.65 61.179 256.775 61.1174 256.843 60.9943C256.913 60.8693 256.948 60.7311 256.948 60.5795V60.2727C256.948 60.1212 256.915 59.983 256.849 59.858C256.783 59.7311 256.656 59.6676 256.468 59.6676C256.288 59.6676 256.162 59.7311 256.091 59.858C256.019 59.9848 255.983 60.1231 255.983 60.2727ZM255.559 65L259.559 59.1818H260.269L256.269 65H255.559Z" fill="#001409"/>
</g>
<g filter="url(#filter2_d_58_2)">
<rect x="328" y="28" width="124" height="124" rx="16" fill="white"/>
<path fill-rule="evenodd" clip-rule="evenodd" d="M389.829 131.736C403.362 131.736 414.333 129.977 414.333 128.105V135.369C414.333 137.241 403.362 139 389.829 139C376.295 139 365.324 137.241 365.324 135.369V128.105C365.324 129.977 376.295 131.736 389.829 131.736ZM405.765 133.827C405.393 133.872 405.128 134.211 405.174 134.582C405.22 134.954 405.558 135.219 405.93 135.173L407.95 134.925C408.322 134.879 408.586 134.541 408.54 134.169C408.495 133.797 408.156 133.533 407.784 133.579L405.765 133.827ZM389.49 134.791C389.115 134.791 388.812 135.095 388.812 135.469C388.812 135.844 389.115 136.148 389.49 136.148H391.525C391.899 136.148 392.203 135.844 392.203 135.469C392.203 135.095 391.899 134.791 391.525 134.791H389.49ZM375.976 134.584C376.015 134.211 375.745 133.877 375.372 133.838L373.348 133.626C372.976 133.586 372.642 133.857 372.603 134.229C372.564 134.602 372.834 134.936 373.206 134.975L375.23 135.188C375.603 135.227 375.937 134.956 375.976 134.584Z" fill="#F1F1F1"/>
<path d="M414.333 128.105C414.333 129.977 403.362 131.736 389.829 131.736C376.295 131.736 365.324 129.977 365.324 128.105C365.324 126.234 376.295 124.717 389.829 124.717C403.362 124.717 414.333 126.234 414.333 128.105Z" fill="#E6E6E6"/>
<path d="M373.492 57.9248C382.381 55.5045 397.276 55.5045 406.165 57.9248C415.054 60.3452 418.657 67.6062 418.657 71.7208C418.657 74.5507 418.657 100.391 418.657 116.249C418.657 123.246 413.338 129.1 406.362 129.638C400.449 130.094 393.8 130.526 389.829 130.526C385.858 130.526 379.208 130.094 373.295 129.638C366.319 129.1 361 123.248 361 116.252C361 100.291 361 74.2231 361 71.7208C361 68.0903 364.604 60.3451 373.492 57.9248Z" fill="url(#paint0_radial_58_2)"/>
<mask id="mask0_58_2" style="mask-type:alpha" maskUnits="userSpaceOnUse" x="361" y="56" width="58" height="75">
<path d="M373.492 57.9248C382.381 55.5045 397.276 55.5045 406.165 57.9248C415.054 60.3451 418.657 67.6062 418.657 71.7207C418.657 74.5507 418.657 100.39 418.657 116.249C418.657 123.245 413.338 129.1 406.362 129.638C400.449 130.094 393.8 130.526 389.829 130.526C385.858 130.526 379.208 130.094 373.295 129.638C366.319 129.1 361 123.248 361 116.252C361 100.291 361 74.223 361 71.7208C361 68.0903 364.604 60.3451 373.492 57.9248Z" fill="url(#paint1_radial_58_2)"/>
</mask>
<g mask="url(#mask0_58_2)">
<path d="M361 106.78L418.903 106.78V130.521H361V106.78Z" fill="url(#paint2_linear_58_2)"/>
<path d="M418.661 106.471C418.661 108.28 405.086 110.171 389.401 110.171C373.716 110.171 361 108.471 361 106.663C361 104.854 373.716 103.388 389.401 103.388C405.086 103.388 418.661 104.663 418.661 106.471Z" fill="#00D563"/>
<path opacity="0.3" d="M418.661 106.471C418.661 108.28 405.086 110.171 389.401 110.171C373.716 110.171 361 108.471 361 106.663" stroke="white" stroke-width="0.678322"/>
</g>
<path d="M400.724 46.2005C404.822 45.7347 407.456 45.0262 407.456 44.2923C407.456 43.0263 399.619 42 389.951 42C380.283 42 372.445 43.0263 372.445 44.2923C372.445 44.9852 374.794 45.6554 378.505 46.1202V58.6189H400.724V46.2005Z" fill="#F1F1F1"/>
<path d="M372.456 44.3723L372.446 44.371V57.9406C372.446 60.5933 374.471 61.4039 376.947 61.8017C379.423 62.1995 381.095 62.0822 381.095 62.0822V46.391C376.084 45.9584 372.668 45.186 372.456 44.3723Z" fill="#E5E5E5"/>
<path d="M398.808 46.391V62.0822C398.808 62.0822 400.48 62.1995 402.956 61.8017C405.432 61.4039 407.457 60.5933 407.457 57.9406V44.371L407.446 44.3723C407.235 45.186 403.819 45.9584 398.808 46.391Z" fill="#E5E5E5"/>
</g>
</g>
<defs>
<filter id="filter0_d_58_2" x="2" y="2" width="184" height="184" filterUnits="userSpaceOnUse" color-interpolation-filters="sRGB">
<feFlood flood-opacity="0" result="BackgroundImageFix"/>
<feColorMatrix in="SourceAlpha" type="matrix" values="0 0 0 0 0 0 0 0 0 0 0 0 0 0 0 0 0 0 127 0" result="hardAlpha"/>
<feOffset dy="4"/>
<feGaussianBlur stdDeviation="15"/>
<feComposite in2="hardAlpha" operator="out"/>
<feColorMatrix type="matrix" values="0 0 0 0 0 0 0 0 0 0 0 0 0 0 0 0 0 0 0.08 0"/>
<feBlend mode="normal" in2="BackgroundImageFix" result="effect1_dropShadow_58_2"/>
<feBlend mode="normal" in="SourceGraphic" in2="effect1_dropShadow_58_2" result="shape"/>
</filter>
<filter id="filter1_d_58_2" x="150" y="2" width="184" height="184" filterUnits="userSpaceOnUse" color-interpolation-filters="sRGB">
<feFlood flood-opacity="0" result="BackgroundImageFix"/>
<feColorMatrix in="SourceAlpha" type="matrix" values="0 0 0 0 0 0 0 0 0 0 0 0 0 0 0 0 0 0 127 0" result="hardAlpha"/>
<feOffset dy="4"/>
<feGaussianBlur stdDeviation="15"/>
<feComposite in2="hardAlpha" operator="out"/>
<feColorMatrix type="matrix" values="0 0 0 0 0 0 0 0 0 0 0 0 0 0 0 0 0 0 0.08 0"/>
<feBlend mode="normal" in2="BackgroundImageFix" result="effect1_dropShadow_58_2"/>
<feBlend mode="normal" in="SourceGraphic" in2="effect1_dropShadow_58_2" result="shape"/>
</filter>
<filter id="filter2_d_58_2" x="298" y="2" width="184" height="184" filterUnits="userSpaceOnUse" color-interpolation-filters="sRGB">
<feFlood flood-opacity="0" result="BackgroundImageFix"/>
<feColorMatrix in="SourceAlpha" type="matrix" values="0 0 0 0 0 0 0 0 0 0 0 0 0 0 0 0 0 0 127 0" result="hardAlpha"/>
<feOffset dy="4"/>
<feGaussianBlur stdDeviation="15"/>
<feComposite in2="hardAlpha" operator="out"/>
<feColorMatrix type="matrix" values="0 0 0 0 0 0 0 0 0 0 0 0 0 0 0 0 0 0 0.08 0"/>
<feBlend mode="normal" in2="BackgroundImageFix" result="effect1_dropShadow_58_2"/>
<feBlend mode="normal" in="SourceGraphic" in2="effect1_dropShadow_58_2" result="shape"/>
</filter>
<radialGradient id="paint0_radial_58_2" cx="0" cy="0" r="1" gradientUnits="userSpaceOnUse" gradientTransform="translate(400.159 77.0456) rotate(118.738) scale(39.4729 26.9981)">
<stop stop-color="white"/>
<stop offset="1" stop-color="#F1F1F1"/>
</radialGradient>
<radialGradient id="paint1_radial_58_2" cx="0" cy="0" r="1" gradientUnits="userSpaceOnUse" gradientTransform="translate(400.159 77.0455) rotate(118.738) scale(39.4729 26.9981)">
<stop stop-color="white"/>
<stop offset="1" stop-color="#F1F1F1"/>
</radialGradient>
<linearGradient id="paint2_linear_58_2" x1="389.952" y1="106.78" x2="389.952" y2="130.521" gradientUnits="userSpaceOnUse">
<stop stop-color="#00D563"/>
<stop offset="1" stop-color="#00D563" stop-opacity="0"/>
</linearGradient>
<clipPath id="clip0_58_2">
<rect width="484" height="180" fill="white"/>
</clipPath>
</defs>
</svg>
